# xmcd CD database file
#
# Track frame offsets:
#	150
#	13214
#	32026
#	48623
#	62402
#	76011
#	82657
#	94541
#	107463
#	117061
#	135317
#	152333
#	167139
#	178676
#	189910
#	214075
#	226683
#	238879
#	248595
#	263835
#
# Disc length: 3702 seconds
#
# Revision: 2
# Processed by: cddbd v1.4PL0 Copyright (c) Steve Scherf et al.
# Submitted via: CDex 1.50
#
DISCID=e60e7414
DTITLE=Johnny Cash - The Man In Black - Best Of Cd2
DYEAR=2001
DGENRE=Country
TTITLE0=Man In Black
TTITLE1=Sunday Morning Coming Down
TTITLE2=The Girl From The North Country(Bob Dylan and Johnny Cash)
TTITLE3=It Aint Me Babe
TTITLE4=If I Were A Carpenter(Johnny Cash and June Carter)
TTITLE5=Busted(Live)
TTITLE6=Flesh And Blood
TTITLE7=Wanted Man
TTITLE8=What On Earth Will You Do(For Heavens Sake?)
TTITLE9=One Piece At A Time
TTITLE10=(Ghost)Riders In The Sky
TTITLE11=There Ain't No Good Chain Gang(Johnny Cash and Waylon Jennings)
TTITLE12=A Thing Called Love
TTITLE13=Without Love
TTITLE14=Highway Patrolman
TTITLE15=The Beast In Me
TTITLE16=Sea Of Heartbreak
TTITLE17=I Won't Back Down
TTITLE18=Wayfaring Stranger
TTITLE19=(Bonus Track)Me And Bobby McGee(Live At Österåker)
EXTD=YEAR: 2001
EXTT0=
EXTT1=
EXTT2=
EXTT3=
EXTT4=
EXTT5=
EXTT6=
EXTT7=
EXTT8=
EXTT9=
EXTT10=
EXTT11=
EXTT12=
EXTT13=
EXTT14=
EXTT15=
EXTT16=
EXTT17=
EXTT18=
EXTT19=
PLAYORDER=
